# Blender v2.80 (sub 41) OBJ File: 'leve01_pro.blend'
# www.blender.org
mtllib level_pro02.mtl
o Cube_Cube.001
v -2.765823 -2.358659 2.765823
v -2.765823 1.447666 2.765823
v -2.765823 -2.358659 -2.765823
v -2.765823 2.358659 -2.765823
v 2.765823 -2.358659 2.765823
v 2.765823 1.939211 2.765823
v 2.765823 -2.358659 -2.765823
v 2.765823 2.358659 -2.765823
v -2.765823 -2.358659 -0.985835
v -2.765823 2.358659 -0.985835
v 2.765823 -2.358659 -0.985835
v 2.765823 2.358659 -0.985835
v -2.765823 -2.358659 0.006622
v 2.765823 1.939211 0.006622
v -2.765823 1.447666 0.006622
v 2.765823 -2.358659 0.006622
v -0.527332 -2.358659 -2.765823
v -0.527332 2.358659 -2.765823
v -0.527332 -2.358659 2.765823
v -0.527332 1.939211 2.765823
v -0.527332 2.358659 -0.985835
v -0.527332 -2.358659 -0.985835
v -0.527332 1.939211 0.006622
v -0.527332 -2.358659 0.006622
v -1.661858 -2.358659 -2.765823
v -1.661858 1.447666 2.765823
v -1.661858 -2.358659 -0.985835
v -1.661858 -2.358659 0.006622
v -1.661858 2.358659 -2.765823
v -1.661858 -2.358659 2.765823
v -1.661858 2.358659 -0.985835
v -1.661858 1.447666 0.006622
v -2.765823 1.297127 2.765823
v -2.765823 2.172091 -2.765823
v 2.765823 2.172091 -2.765823
v 2.765823 1.769232 2.765823
v 2.765823 2.172091 -0.985835
v -2.765823 2.172091 -0.985835
v -2.765823 1.297127 0.006622
v 2.765823 1.769232 0.006622
v -0.527332 1.769232 2.765823
v -0.527332 2.172091 -2.765823
v -1.661858 2.172091 -2.765823
v -1.661858 1.297127 2.765823
v -2.828165 1.285163 2.828165
v -2.828165 1.439095 2.828165
v -2.828165 2.370623 -1.008055
v -2.828165 2.370623 -2.828165
v -0.539218 2.370623 -2.828165
v 2.828165 2.370623 -2.828165
v 2.828165 1.941720 0.006771
v 2.828165 1.941720 2.828165
v -1.699316 1.439095 2.828165
v -2.828165 1.439095 0.006771
v 2.828165 2.370623 -1.008055
v -1.699316 2.370623 -2.828165
v -0.539218 1.941720 2.828165
v -2.828165 2.179849 -2.828165
v 2.828165 2.179849 -2.828165
v 2.828165 1.767910 2.828165
v 2.828165 2.179849 -1.008055
v -2.828165 2.179849 -1.008055
v -2.828165 1.285163 0.006771
v 2.828165 1.767910 0.006771
v -0.539218 1.767910 2.828165
v -0.539218 2.179849 -2.828165
v -1.699316 2.179849 -2.828165
v -1.699316 1.285163 2.828165
vt 0.534525 0.021061
vt 0.667651 0.081353
vt 0.663839 0.085348
vt 0.527712 0.023697
vt 0.008527 0.648804
vt 0.008527 0.700068
vt 0.008527 0.700068
vt 0.008527 0.648804
vt 0.527769 0.037422
vt 0.730677 0.138186
vt 0.728368 0.142809
vt 0.520886 0.039773
vt 0.026731 0.250049
vt 0.026731 0.374725
vt 0.026731 0.374725
vt 0.026731 0.250049
vt 0.338124 0.365858
vt 0.338124 0.514661
vt 0.213447 0.514661
vt 0.213447 0.365858
vt 0.261900 0.123001
vt 0.213447 0.123210
vt 0.216762 0.000097
vt 0.266020 0.001424
vt 0.268924 0.262592
vt 0.219227 0.264515
vt 0.215930 0.184227
vt 0.266301 0.181870
vt 0.463398 0.365858
vt 0.463398 0.514661
vt 0.382968 0.514661
vt 0.382968 0.365858
vt 0.869053 0.163038
vt 0.783310 0.126632
vt 0.786245 0.122216
vt 0.873922 0.159443
vt 0.008527 0.749951
vt 0.008527 0.749951
vt 0.749834 0.114094
vt 0.747874 0.118827
vt 0.048063 0.000097
vt 0.048063 0.049981
vt 0.048063 0.049981
vt 0.048063 0.000097
vt 0.382968 0.314593
vt 0.338124 0.314593
vt 0.468331 0.178273
vt 0.317850 0.179979
vt 0.316706 0.130121
vt 0.467844 0.129303
vt 0.463398 0.314593
vt 0.469422 0.258998
vt 0.320073 0.261017
vt 0.323237 0.003931
vt 0.469422 0.007478
vt 0.213447 0.314593
vt 0.833830 0.178114
vt 0.833846 0.183636
vt 0.026731 0.101245
vt 0.026731 0.101245
vt 0.534434 0.020962
vt 0.531759 0.014164
vt 0.338124 0.264710
vt 0.213447 0.264710
vt 0.463398 0.264710
vt 0.382968 0.264710
vt 0.008527 0.419570
vt 0.008527 0.500000
vt 0.008527 0.500000
vt 0.008527 0.419570
vt 0.213253 0.101245
vt 0.213253 0.049981
vt 0.213253 0.749951
vt 0.213253 0.700068
vt 0.213253 0.648804
vt 0.213253 0.250049
vt 0.213253 0.419570
vt 0.213253 0.374725
vt 0.213253 0.999903
vt 0.048063 0.999903
vt 0.048063 0.875226
vt 0.213253 0.875226
vt 0.008527 0.830381
vt 0.213253 0.830381
vt 0.213253 0.500000
vt 0.213253 0.000097
vt 0.008527 0.830381
vt 0.000097 0.830381
vt 0.000097 0.749951
vt 0.000097 0.648804
vt 0.000097 0.500000
vt 0.019050 0.374725
vt 0.019050 0.250049
vt 0.041261 0.049981
vt 0.041261 0.000097
vt 0.000097 0.419570
vt 0.048063 0.875226
vt 0.041261 0.875226
vt 0.048063 0.999903
vt 0.041261 0.999903
vt 0.019050 0.101245
vt 0.000097 0.700068
vt 0.778464 0.138225
vt 0.872588 0.176262
vt 0.873534 0.182200
vt 0.777288 0.143306
vt 0.958943 0.201264
vt 0.961696 0.207962
vt 0.531081 0.029040
vt 0.524331 0.031660
vt 0.971908 0.225998
vt 0.975036 0.232600
vt 0.956799 0.209795
vt 0.959643 0.216489
vt 0.952491 0.198465
vt 0.959240 0.195668
vn -0.1885 0.9821 0.0000
vn 0.0000 -0.9923 -0.1235
vn -0.1362 0.9907 0.0000
vn -0.0212 -0.9998 0.0000
vn 0.0000 -1.0000 0.0000
vn 0.0000 1.0000 0.0000
vn 0.0000 0.9821 0.1885
vn -0.0380 0.9204 0.3890
vn 0.0000 0.7367 0.6762
vn 0.0000 -0.9821 -0.1885
vn 0.0000 0.9211 0.3893
vn -0.0992 0.7331 0.6729
vn 0.3836 -0.9219 0.0536
vn -0.1771 0.8175 0.5480
vn -0.3976 0.9176 0.0000
vn 0.1235 -0.9923 0.0000
vn 0.0000 0.0000 1.0000
vn 0.0000 0.0000 -1.0000
vn 1.0000 0.0000 0.0000
vn -1.0000 0.0000 0.0000
vn -0.3950 0.9118 -0.1120
vn -0.0402 0.9992 0.0000
vn 0.0000 -0.9998 -0.0212
vn 0.0000 0.9992 -0.0402
vn -0.1235 -0.9923 0.0000
vn -0.0187 -0.9264 -0.3760
vn 0.1885 0.9821 0.0000
vn 0.1885 -0.9821 0.0000
vn 0.0000 0.9907 0.1362
vn 0.1409 -0.7426 -0.6547
usemtl Material.001
s off
f 8/1/1 12/2/1 55/3/1 50/4/1
f 42/5/2 43/6/2 67/7/2 66/8/2
f 2/9/3 15/10/3 54/11/3 46/12/3
f 36/13/4 40/14/4 64/15/4 60/16/4
f 24/17/5 16/18/5 5/19/5 19/20/5
f 32/21/6 15/22/6 2/23/6 26/24/6
f 29/25/6 4/26/6 10/27/6 31/28/6
f 17/29/5 7/30/5 11/31/5 22/32/5
f 29/33/7 18/34/7 49/35/7 56/36/7
f 43/6/2 34/37/2 58/38/2 67/7/2
f 12/2/8 14/39/8 51/40/8 55/3/8
f 31/28/9 10/27/9 15/22/9 32/21/9
f 22/32/5 11/31/5 16/18/5 24/17/5
f 33/41/10 44/42/10 68/43/10 45/44/10
f 27/45/5 22/32/5 24/17/5 28/46/5
f 12/47/11 21/48/11 23/49/11 14/50/11
f 25/51/5 17/29/5 22/32/5 27/45/5
f 8/52/6 18/53/6 21/48/6 12/47/6
f 14/50/6 23/49/6 20/54/6 6/55/6
f 28/46/5 24/17/5 19/20/5 30/56/5
f 15/10/12 10/57/12 47/58/12 54/11/12
f 44/42/13 41/59/13 65/60/13 68/43/13
f 18/34/7 8/61/7 50/62/7 49/35/7
f 13/63/5 28/46/5 30/56/5 1/64/5
f 3/65/5 25/51/5 27/45/5 9/66/5
f 9/66/5 27/45/5 28/46/5 13/63/5
f 21/48/14 31/28/14 32/21/14 23/49/14
f 18/53/6 29/25/6 31/28/6 21/48/6
f 23/49/15 32/21/15 26/24/15 20/54/15
f 37/67/16 35/68/16 59/69/16 61/70/16
f 19/71/17 41/59/17 44/42/17 30/72/17
f 3/73/18 34/37/18 43/6/18 25/74/18
f 25/74/18 43/6/18 42/5/18 17/75/18
f 5/76/17 36/13/17 41/59/17 19/71/17
f 11/77/19 37/67/19 40/14/19 16/78/19
f 1/79/20 33/80/20 39/81/20 13/82/20
f 13/82/20 39/81/20 38/83/20 9/84/20
f 7/85/19 35/68/19 37/67/19 11/77/19
f 30/72/17 44/42/17 33/41/17 1/86/17
f 16/78/19 40/14/19 36/13/19 5/76/19
f 17/75/18 42/5/18 35/68/18 7/85/18
f 9/84/20 38/83/20 34/37/20 3/73/20
f 62/87/20 47/88/20 48/89/20 58/38/20
f 66/8/18 49/90/18 50/91/18 59/69/18
f 64/15/19 51/92/19 52/93/19 60/16/19
f 68/43/17 53/94/17 46/95/17 45/44/17
f 59/69/19 50/91/19 55/96/19 61/70/19
f 63/97/20 54/98/20 47/88/20 62/87/20
f 45/99/20 46/100/20 54/98/20 63/97/20
f 61/70/19 55/96/19 51/92/19 64/15/19
f 60/16/17 52/93/17 57/101/17 65/60/17
f 67/7/18 56/102/18 49/90/18 66/8/18
f 58/38/18 48/89/18 56/102/18 67/7/18
f 65/60/17 57/101/17 53/94/17 68/43/17
f 35/68/2 42/5/2 66/8/2 59/69/2
f 20/103/21 26/104/21 53/105/21 57/106/21
f 14/39/22 6/107/22 52/108/22 51/40/22
f 41/59/23 36/13/23 60/16/23 65/60/23
f 6/109/24 20/103/24 57/106/24 52/110/24
f 34/37/25 38/83/25 62/87/25 58/38/25
f 40/14/26 37/67/26 61/70/26 64/15/26
f 10/57/27 4/111/27 48/112/27 47/58/27
f 39/81/28 33/80/28 45/99/28 63/97/28
f 26/104/29 2/113/29 46/114/29 53/105/29
f 4/115/7 29/33/7 56/36/7 48/116/7
f 38/83/30 39/81/30 63/97/30 62/87/30
