# Blender v2.80 (sub 41) OBJ File: 'CaracolHome2_8.blend'
# www.blender.org
mtllib level02.mtl
o Cube.013_Cube.014
v -21.546284 -0.807390 21.546284
v -21.546284 0.807390 21.546284
v -21.546284 -0.807390 -21.546284
v -21.546284 0.807390 -21.546284
v 21.546284 -0.807390 21.546284
v 21.546284 0.807390 21.546284
v 21.546284 -0.807390 -21.546284
v 21.546284 0.807390 -21.546284
v -21.546284 -0.807390 0.282520
v -21.546284 0.807390 0.282520
v 21.546284 -0.807390 0.282520
v 21.546284 0.807390 0.282520
v -0.153455 -0.807390 -21.546284
v -0.153455 0.807390 -21.546284
v -0.153455 -0.807390 21.546284
v -0.153455 0.807390 21.546284
v -0.153455 0.807390 0.282520
v -0.153455 -0.807390 0.282520
v -0.153455 7.083815 -21.546284
v 21.546284 7.083815 -21.546284
v 21.546284 7.083815 0.282520
v -0.153455 7.083815 0.282520
vt 0.666667 0.500000
vt 0.333333 0.500000
vt 0.333333 0.333333
vt 0.666667 0.333333
vt 0.333333 0.500000
vt 0.000000 0.500000
vt 0.000000 0.333333
vt 0.333333 0.333333
vt 0.333333 0.166667
vt 0.000000 0.166667
vt 0.000000 0.000000
vt 0.333333 0.000000
vt 0.500000 0.333333
vt 0.500000 0.000000
vt 0.666667 0.000000
vt 0.666667 0.333333
vt 0.833333 0.166667
vt 0.666667 0.166667
vt 0.666667 0.000000
vt 0.833333 0.000000
vt 0.166667 0.833333
vt 0.166667 1.000000
vt 0.000000 1.000000
vt 0.000000 0.833333
vt 0.333333 0.833333
vt 0.333333 1.000000
vt 0.833333 0.333333
vt 0.666667 0.333333
vt 0.666667 0.666667
vt 0.333333 0.666667
vt 1.000000 0.333333
vt 1.000000 0.166667
vt 0.000000 0.333333
vt 0.000000 0.166667
vt 0.166667 0.666667
vt 0.000000 0.666667
vt 1.000000 0.000000
vt 0.333333 0.333333
vt 0.333333 0.000000
vt 0.333333 0.666667
vt 0.000000 0.666667
vt 0.333333 0.666667
vt 0.333333 0.833333
vt 0.166667 0.833333
vt 0.166667 0.666667
vt 0.000000 0.500000
vn -1.0000 0.0000 0.0000
vn 0.0000 0.0000 -1.0000
vn 1.0000 0.0000 0.0000
vn 0.0000 0.0000 1.0000
vn 0.0000 -1.0000 0.0000
vn 0.0000 1.0000 0.0000
usemtl Material
s off
f 9/1/1 10/2/1 4/3/1 3/4/1
f 13/5/2 14/6/2 8/7/2 7/8/2
f 11/9/3 12/10/3 6/11/3 5/12/3
f 15/13/4 16/14/4 2/15/4 1/16/4
f 18/17/5 11/18/5 5/19/5 15/20/5
f 17/21/6 10/22/6 2/23/6 16/24/6
f 14/25/6 4/26/6 10/22/6 17/21/6
f 13/27/5 7/28/5 11/18/5 18/17/5
f 7/8/3 8/7/3 12/10/3 11/9/3
f 1/29/1 2/30/1 10/2/1 9/1/1
f 3/31/5 13/27/5 18/17/5 9/32/5
f 12/10/3 8/7/3 20/33/3 21/34/3
f 12/35/6 17/21/6 16/24/6 6/36/6
f 9/32/5 18/17/5 15/20/5 1/37/5
f 5/38/4 6/39/4 16/14/4 15/13/4
f 3/40/2 4/41/2 14/6/2 13/5/2
f 20/42/6 19/43/6 22/44/6 21/45/6
f 8/7/2 14/6/2 19/46/2 20/33/2
f 17/21/4 12/35/4 21/45/4 22/44/4
f 14/25/1 17/21/1 22/44/1 19/43/1
o Cube.000_Cube.001
v 7.267088 12.735626 -4.346669
v 7.267088 14.935484 -4.346669
v 7.267088 12.735626 -6.546527
v 7.267088 14.935484 -6.546527
v 9.466946 12.735626 -4.346669
v 9.466946 14.935484 -4.346669
v 9.466946 12.735626 -6.546527
v 9.466946 14.935484 -6.546527
v 3.929213 17.915091 -1.008794
v 3.929213 17.915091 -9.884402
v 12.804821 17.915091 -9.884402
v 12.804821 17.915091 -1.008794
v 5.468826 20.462173 -2.548407
v 5.468826 20.462173 -8.344789
v 11.265207 20.462173 -8.344789
v 11.265207 20.462173 -2.548407
v 7.267088 5.680208 -6.546527
v 7.267088 5.680208 -4.346669
v 9.466946 5.680208 -6.546527
v 9.466946 5.680208 -4.346669
vt 0.493602 0.613937
vt 0.493602 0.493564
vt 0.620202 0.493564
vt 0.620202 0.613937
vt 0.746801 0.613937
vt 0.746801 0.493564
vt 0.873401 0.493564
vt 0.873401 0.613937
vt 1.000000 0.879627
vt 1.000000 1.000000
vt 0.873401 1.000000
vt 0.873401 0.879627
vt 0.620202 0.613937
vt 0.620202 0.493564
vt 0.746801 0.493564
vt 0.746801 0.613937
vt 0.873401 0.493564
vt 1.000000 0.493564
vt 0.192091 0.185616
vt 0.192091 0.307948
vt 0.000000 0.493564
vt 0.000000 0.000000
vt 0.990863 0.000000
vt 0.990863 0.493564
vt 0.830836 0.407948
vt 0.830836 0.085616
vt 0.318690 0.185616
vt 0.510781 0.000000
vt 0.318690 0.307948
vt 0.510781 0.493564
vt 0.333575 0.815895
vt 0.000000 0.815896
vt 0.000000 0.493564
vt 0.333575 0.493564
vt 0.670809 0.000000
vt 0.670809 0.493564
vt 0.510781 0.407948
vt 0.510781 0.085616
vt 0.830836 0.000000
vt 0.830836 0.493564
vt 0.670809 0.407948
vt 0.670809 0.085616
vt 0.493602 0.493564
vt 0.493602 0.987128
vt 0.333575 0.901512
vt 0.333575 0.579181
vt 0.000000 0.938228
vt 0.000000 0.815896
vt 0.126599 0.815896
vt 0.126599 0.938228
vt 0.746801 1.000000
vt 0.620202 1.000000
vt 0.873401 1.000000
vt 0.746801 1.000000
vt 0.620202 1.000000
vt 0.493602 1.000000
vn -1.0000 0.0000 0.0000
vn 0.0000 0.0000 -1.0000
vn 1.0000 0.0000 0.0000
vn 0.0000 0.0000 1.0000
vn 0.0000 -0.7460 -0.6659
vn 0.8558 0.5173 0.0000
vn 0.6659 -0.7460 0.0000
vn -0.6659 -0.7460 0.0000
vn 0.0000 -0.7460 0.6659
vn 0.0000 1.0000 0.0000
vn -0.8558 0.5173 0.0000
vn 0.0000 0.5173 0.8558
vn 0.0000 0.5173 -0.8558
vn 0.0000 -1.0000 0.0000
usemtl Material.001
s off
f 23/47/7 24/48/7 26/49/7 25/50/7
f 25/51/8 26/52/8 30/53/8 29/54/8
f 29/55/9 30/56/9 28/57/9 27/58/9
f 27/59/10 28/60/10 24/61/10 23/62/10
f 29/55/9 27/58/9 42/63/9 41/64/9
f 30/65/11 26/66/11 32/67/11 33/68/11
f 34/69/12 33/70/12 37/71/12 38/72/12
f 28/73/13 30/65/13 33/68/13 34/74/13
f 26/66/14 24/75/14 31/76/14 32/67/14
f 24/75/15 28/73/15 34/74/15 31/76/15
f 37/77/16 36/78/16 35/79/16 38/80/16
f 32/81/17 31/82/17 35/83/17 36/84/17
f 31/85/18 34/86/18 38/87/18 35/88/18
f 33/89/19 32/90/19 36/91/19 37/92/19
f 39/93/20 41/94/20 42/95/20 40/96/20
f 27/59/10 23/62/10 40/97/10 42/98/10
f 25/51/8 29/54/8 41/99/8 39/100/8
f 23/47/7 25/50/7 39/101/7 40/102/7
